<mxfile host="app.diagrams.net" modified="2021-03-05T08:29:22.774Z" agent="5.0 (X11; Linux x86_64) AppleWebKit/537.36 (KHTML, like Gecko) Chrome/78.0.3904.108 Safari/537.36" etag="ruYO4F-v1ue3RWLjhLOP" version="14.1.1" type="github">
  <diagram id="4nwnWLZcZ4zx3wffTewT" name="Page-1">
    <mxGraphModel dx="918" dy="764" grid="1" gridSize="10" guides="1" tooltips="1" connect="1" arrows="1" fold="1" page="1" pageScale="1" pageWidth="827" pageHeight="1169" math="0" shadow="0">
      <root>
        <mxCell id="0" />
        <mxCell id="1" parent="0" />
        <mxCell id="Jcrmtz6KC1sCRWMZGM7s-6" style="edgeStyle=orthogonalEdgeStyle;rounded=0;orthogonalLoop=1;jettySize=auto;html=1;exitX=0.5;exitY=1;exitDx=0;exitDy=0;entryX=0.5;entryY=0;entryDx=0;entryDy=0;fontSize=15;" edge="1" parent="1" source="Jcrmtz6KC1sCRWMZGM7s-1" target="Jcrmtz6KC1sCRWMZGM7s-2">
          <mxGeometry relative="1" as="geometry" />
        </mxCell>
        <mxCell id="Jcrmtz6KC1sCRWMZGM7s-7" style="edgeStyle=orthogonalEdgeStyle;rounded=0;orthogonalLoop=1;jettySize=auto;html=1;exitX=0.5;exitY=1;exitDx=0;exitDy=0;entryX=0.5;entryY=0;entryDx=0;entryDy=0;fontSize=15;" edge="1" parent="1" source="Jcrmtz6KC1sCRWMZGM7s-1" target="Jcrmtz6KC1sCRWMZGM7s-4">
          <mxGeometry relative="1" as="geometry" />
        </mxCell>
        <mxCell id="Jcrmtz6KC1sCRWMZGM7s-1" value="相关技术" style="rounded=1;whiteSpace=wrap;html=1;fontSize=15;fillColor=#dae8fc;strokeColor=#6c8ebf;" vertex="1" parent="1">
          <mxGeometry x="369" y="220" width="90" height="50" as="geometry" />
        </mxCell>
        <mxCell id="Jcrmtz6KC1sCRWMZGM7s-8" style="edgeStyle=orthogonalEdgeStyle;rounded=0;orthogonalLoop=1;jettySize=auto;html=1;exitX=1;exitY=0.5;exitDx=0;exitDy=0;entryX=0;entryY=0.5;entryDx=0;entryDy=0;fontSize=15;" edge="1" parent="1" source="Jcrmtz6KC1sCRWMZGM7s-2" target="Jcrmtz6KC1sCRWMZGM7s-4">
          <mxGeometry relative="1" as="geometry" />
        </mxCell>
        <mxCell id="Jcrmtz6KC1sCRWMZGM7s-10" style="edgeStyle=orthogonalEdgeStyle;rounded=0;orthogonalLoop=1;jettySize=auto;html=1;exitX=0.5;exitY=1;exitDx=0;exitDy=0;fontSize=15;" edge="1" parent="1" source="Jcrmtz6KC1sCRWMZGM7s-2" target="Jcrmtz6KC1sCRWMZGM7s-9">
          <mxGeometry relative="1" as="geometry" />
        </mxCell>
        <mxCell id="Jcrmtz6KC1sCRWMZGM7s-2" value="基于分布式深度强化学习的低轨卫星网络路由算法" style="rounded=1;whiteSpace=wrap;html=1;fontSize=15;fillColor=#dae8fc;strokeColor=#6c8ebf;" vertex="1" parent="1">
          <mxGeometry x="204" y="320" width="180" height="70" as="geometry" />
        </mxCell>
        <mxCell id="Jcrmtz6KC1sCRWMZGM7s-5" style="edgeStyle=orthogonalEdgeStyle;rounded=0;orthogonalLoop=1;jettySize=auto;html=1;exitX=0.5;exitY=1;exitDx=0;exitDy=0;entryX=0.5;entryY=0;entryDx=0;entryDy=0;fontSize=15;" edge="1" parent="1" source="Jcrmtz6KC1sCRWMZGM7s-3" target="Jcrmtz6KC1sCRWMZGM7s-1">
          <mxGeometry relative="1" as="geometry" />
        </mxCell>
        <mxCell id="Jcrmtz6KC1sCRWMZGM7s-3" value="绪论" style="rounded=1;whiteSpace=wrap;html=1;fontSize=15;fillColor=#dae8fc;strokeColor=#6c8ebf;" vertex="1" parent="1">
          <mxGeometry x="384" y="130" width="60" height="50" as="geometry" />
        </mxCell>
        <mxCell id="Jcrmtz6KC1sCRWMZGM7s-11" style="edgeStyle=orthogonalEdgeStyle;rounded=0;orthogonalLoop=1;jettySize=auto;html=1;exitX=0.5;exitY=1;exitDx=0;exitDy=0;fontSize=15;entryX=0.5;entryY=0;entryDx=0;entryDy=0;" edge="1" parent="1" source="Jcrmtz6KC1sCRWMZGM7s-4" target="Jcrmtz6KC1sCRWMZGM7s-9">
          <mxGeometry relative="1" as="geometry">
            <mxPoint x="420" y="470" as="targetPoint" />
          </mxGeometry>
        </mxCell>
        <mxCell id="Jcrmtz6KC1sCRWMZGM7s-4" value="&lt;span style=&quot;font-size: 15px&quot;&gt;基于注意力机制的低轨卫星网络路由算法&lt;/span&gt;" style="rounded=1;whiteSpace=wrap;html=1;fillColor=#dae8fc;strokeColor=#6c8ebf;" vertex="1" parent="1">
          <mxGeometry x="450" y="320" width="180" height="70" as="geometry" />
        </mxCell>
        <mxCell id="Jcrmtz6KC1sCRWMZGM7s-9" value="总结与展望" style="rounded=1;whiteSpace=wrap;html=1;fontSize=15;fillColor=#dae8fc;strokeColor=#6c8ebf;" vertex="1" parent="1">
          <mxGeometry x="360" y="460" width="120" height="50" as="geometry" />
        </mxCell>
      </root>
    </mxGraphModel>
  </diagram>
</mxfile>
